<?xml version="1.0" encoding="UTF-8"?><svg xmlns="http://www.w3.org/2000/svg" xmlns:xlink="http://www.w3.org/1999/xlink" fill-opacity="1" color-rendering="auto" color-interpolation="auto" text-rendering="auto" stroke="black" stroke-linecap="square" width="1287" stroke-miterlimit="10" shape-rendering="auto" stroke-opacity="1" fill="black" stroke-dasharray="none" font-weight="normal" stroke-width="1" height="874" font-family="'Dialog'" font-style="normal" stroke-linejoin="miter" font-size="12px" stroke-dashoffset="0" image-rendering="auto">
  <!--Generated by ySVG 2.5-->
  <defs id="genericDefs"/>
  <g>
    <defs id="defs1">
      <clipPath clipPathUnits="userSpaceOnUse" id="clipPath1">
        <path d="M0 0 L1287 0 L1287 874 L0 874 L0 0 Z"/>
      </clipPath>
      <clipPath clipPathUnits="userSpaceOnUse" id="clipPath2">
        <path d="M-1308 4 L-21 4 L-21 878 L-1308 878 L-1308 4 Z"/>
      </clipPath>
    </defs>
    <g fill="white" text-rendering="geometricPrecision" shape-rendering="geometricPrecision" transform="translate(1308,-4)" stroke="white">
      <rect x="-1308" width="1287" height="874" y="4" clip-path="url(#clipPath2)" stroke="none"/>
    </g>
    <g fill="rgb(204,255,255)" text-rendering="geometricPrecision" shape-rendering="geometricPrecision" transform="matrix(1,0,0,1,1308,-4)" stroke="rgb(204,255,255)">
      <rect x="-1292.624" width="977.9649" height="660.5354" y="110.0736" clip-path="url(#clipPath2)" stroke="none"/>
    </g>
    <g text-rendering="geometricPrecision" stroke-miterlimit="1.45" shape-rendering="geometricPrecision" transform="matrix(1,0,0,1,1308,-4)" stroke-linecap="butt">
      <rect fill="none" x="-1292.624" width="977.9649" height="660.5354" y="110.0736" clip-path="url(#clipPath2)"/>
    </g>
    <g stroke-linecap="butt" font-size="16px" transform="matrix(1,0,0,1,1308,-4)" text-rendering="geometricPrecision" font-family="sans-serif" shape-rendering="geometricPrecision" font-style="italic" font-weight="bold" stroke-miterlimit="1.45">
      <text x="-1282.4485" xml:space="preserve" y="137.4022" clip-path="url(#clipPath2)" stroke="none">Activity Concept Model (Biomedical Concepts)</text>
    </g>
    <g fill="rgb(153,255,255)" text-rendering="geometricPrecision" shape-rendering="geometricPrecision" transform="matrix(1,0,0,1,1308,-4)" stroke="rgb(153,255,255)">
      <rect x="-696.5307" width="343.1062" height="507.1858" y="134.8366" clip-path="url(#clipPath2)" stroke="none"/>
    </g>
    <g text-rendering="geometricPrecision" stroke-miterlimit="1.45" shape-rendering="geometricPrecision" transform="matrix(1,0,0,1,1308,-4)" stroke-linecap="butt">
      <rect fill="none" x="-696.5307" width="343.1062" height="507.1858" y="134.8366" clip-path="url(#clipPath2)"/>
    </g>
    <g stroke-linecap="butt" font-size="16px" transform="matrix(1,0,0,1,1308,-4)" text-rendering="geometricPrecision" font-family="sans-serif" shape-rendering="geometricPrecision" font-style="italic" font-weight="bold" stroke-miterlimit="1.45">
      <text x="-691.6624" xml:space="preserve" y="160.0194" clip-path="url(#clipPath2)" stroke="none">Concept</text>
    </g>
    <g fill="rgb(153,204,255)" text-rendering="geometricPrecision" shape-rendering="geometricPrecision" transform="matrix(1,0,0,1,1308,-4)" stroke="rgb(153,204,255)">
      <rect x="-650.9906" y="430.0161" clip-path="url(#clipPath2)" width="247" rx="4" ry="4" height="61" stroke="none"/>
    </g>
    <g text-rendering="geometricPrecision" stroke-miterlimit="1.45" shape-rendering="geometricPrecision" transform="matrix(1,0,0,1,1308,-4)" stroke-linecap="butt">
      <rect x="-650.9906" y="430.0161" clip-path="url(#clipPath2)" fill="none" width="247" rx="4" ry="4" height="61"/>
      <text x="-556.389" font-size="16px" y="466.8013" clip-path="url(#clipPath2)" font-family="sans-serif" stroke="none" font-weight="bold" xml:space="preserve">Activity</text>
    </g>
    <g fill="rgb(153,204,255)" text-rendering="geometricPrecision" shape-rendering="geometricPrecision" transform="matrix(1,0,0,1,1308,-4)" stroke="rgb(153,204,255)">
      <rect x="-650.9906" y="310.2755" clip-path="url(#clipPath2)" width="247" rx="4" ry="4" height="61" stroke="none"/>
    </g>
    <g text-rendering="geometricPrecision" stroke-miterlimit="1.45" shape-rendering="geometricPrecision" transform="matrix(1,0,0,1,1308,-4)" stroke-linecap="butt">
      <rect x="-650.9906" y="310.2755" clip-path="url(#clipPath2)" fill="none" width="247" rx="4" ry="4" height="61"/>
      <text x="-596.3812" font-size="16px" y="347.0607" clip-path="url(#clipPath2)" font-family="sans-serif" stroke="none" font-weight="bold" xml:space="preserve">Activity Subgroup</text>
    </g>
    <g fill="rgb(153,204,255)" text-rendering="geometricPrecision" shape-rendering="geometricPrecision" transform="matrix(1,0,0,1,1308,-4)" stroke="rgb(153,204,255)">
      <rect x="-650.9906" y="190.535" clip-path="url(#clipPath2)" width="247" rx="4" ry="4" height="61" stroke="none"/>
    </g>
    <g text-rendering="geometricPrecision" stroke-miterlimit="1.45" shape-rendering="geometricPrecision" transform="matrix(1,0,0,1,1308,-4)" stroke-linecap="butt">
      <rect x="-650.9906" y="190.535" clip-path="url(#clipPath2)" fill="none" width="247" rx="4" ry="4" height="61"/>
      <text x="-582.6078" font-size="16px" y="227.3201" clip-path="url(#clipPath2)" font-family="sans-serif" stroke="none" font-weight="bold" xml:space="preserve">Activity Group</text>
    </g>
    <g fill="rgb(153,204,255)" text-rendering="geometricPrecision" shape-rendering="geometricPrecision" transform="matrix(1,0,0,1,1308,-4)" stroke="rgb(153,204,255)">
      <rect x="-650.9906" y="549.7567" clip-path="url(#clipPath2)" width="247" rx="4" ry="4" height="61" stroke="none"/>
    </g>
    <g text-rendering="geometricPrecision" stroke-miterlimit="1.45" shape-rendering="geometricPrecision" transform="matrix(1,0,0,1,1308,-4)" stroke-linecap="butt">
      <rect x="-650.9906" y="549.7567" clip-path="url(#clipPath2)" fill="none" width="247" rx="4" ry="4" height="61"/>
      <text x="-591.0687" font-size="16px" y="586.5419" clip-path="url(#clipPath2)" font-family="sans-serif" stroke="none" font-weight="bold" xml:space="preserve">Activity Instance</text>
    </g>
    <g fill="rgb(153,204,255)" text-rendering="geometricPrecision" shape-rendering="geometricPrecision" transform="matrix(1,0,0,1,1308,-4)" stroke="rgb(153,204,255)">
      <rect x="-650.9906" y="669.4973" clip-path="url(#clipPath2)" width="247" rx="4" ry="4" height="61" stroke="none"/>
    </g>
    <g text-rendering="geometricPrecision" stroke-miterlimit="1.45" shape-rendering="geometricPrecision" transform="matrix(1,0,0,1,1308,-4)" stroke-linecap="butt">
      <rect x="-650.9906" y="669.4973" clip-path="url(#clipPath2)" fill="none" width="247" rx="4" ry="4" height="61"/>
      <text x="-575.0609" font-size="16px" y="706.2824" clip-path="url(#clipPath2)" font-family="sans-serif" stroke="none" font-weight="bold" xml:space="preserve">Activity Item</text>
    </g>
    <g fill="rgb(153,204,255)" text-rendering="geometricPrecision" shape-rendering="geometricPrecision" transform="matrix(1,0,0,1,1308,-4)" stroke="rgb(153,204,255)">
      <rect x="-981.2311" y="672.0224" clip-path="url(#clipPath2)" width="247" rx="4" ry="4" height="61" stroke="none"/>
    </g>
    <g text-rendering="geometricPrecision" stroke-miterlimit="1.45" shape-rendering="geometricPrecision" transform="matrix(1,0,0,1,1308,-4)" stroke-linecap="butt">
      <rect x="-981.2311" y="672.0224" clip-path="url(#clipPath2)" fill="none" width="247" rx="4" ry="4" height="61"/>
      <text x="-928.8718" font-size="16px" y="708.8076" clip-path="url(#clipPath2)" font-family="sans-serif" stroke="none" font-weight="bold" xml:space="preserve">Activity Item Class</text>
    </g>
    <g fill="rgb(153,204,255)" text-rendering="geometricPrecision" shape-rendering="geometricPrecision" transform="matrix(1,0,0,1,1308,-4)" stroke="rgb(153,204,255)">
      <rect x="-981.2311" y="552.2818" clip-path="url(#clipPath2)" width="247" rx="4" ry="4" height="61" stroke="none"/>
    </g>
    <g text-rendering="geometricPrecision" stroke-miterlimit="1.45" shape-rendering="geometricPrecision" transform="matrix(1,0,0,1,1308,-4)" stroke-linecap="butt">
      <rect x="-981.2311" y="552.2818" clip-path="url(#clipPath2)" fill="none" width="247" rx="4" ry="4" height="61"/>
      <text x="-944.8796" font-size="16px" y="589.067" clip-path="url(#clipPath2)" font-family="sans-serif" stroke="none" font-weight="bold" xml:space="preserve">Activity Instance Class</text>
    </g>
    <g fill="rgb(153,204,255)" text-rendering="geometricPrecision" shape-rendering="geometricPrecision" transform="matrix(1,0,0,1,1308,-4)" stroke="rgb(153,204,255)">
      <rect x="-650.9906" y="19.0736" clip-path="url(#clipPath2)" width="247" rx="4" ry="4" height="61" stroke="none"/>
    </g>
    <g text-rendering="geometricPrecision" stroke-miterlimit="1.45" shape-rendering="geometricPrecision" transform="matrix(1,0,0,1,1308,-4)" stroke-linecap="butt">
      <rect x="-650.9906" y="19.0736" clip-path="url(#clipPath2)" fill="none" width="247" rx="4" ry="4" height="61"/>
      <text x="-554.6117" font-size="16px" y="55.8588" clip-path="url(#clipPath2)" font-family="sans-serif" stroke="none" font-weight="bold" xml:space="preserve">Library</text>
    </g>
    <g fill="rgb(153,255,255)" text-rendering="geometricPrecision" shape-rendering="geometricPrecision" transform="matrix(1,0,0,1,1308,-4)" stroke="rgb(153,255,255)">
      <rect x="-293.4091" width="256.8562" height="523.4358" y="110.0736" clip-path="url(#clipPath2)" stroke="none"/>
    </g>
    <g text-rendering="geometricPrecision" stroke-miterlimit="1.45" shape-rendering="geometricPrecision" transform="matrix(1,0,0,1,1308,-4)" stroke-linecap="butt">
      <rect fill="none" x="-293.4091" width="256.8562" height="523.4358" y="110.0736" clip-path="url(#clipPath2)"/>
    </g>
    <g stroke-linecap="butt" font-size="16px" transform="matrix(1,0,0,1,1308,-4)" text-rendering="geometricPrecision" font-family="sans-serif" shape-rendering="geometricPrecision" font-style="italic" font-weight="bold" stroke-miterlimit="1.45">
      <text x="-254.8319" xml:space="preserve" y="144.3227" clip-path="url(#clipPath2)" stroke="none">Data Collection Model</text>
    </g>
    <g fill="rgb(153,255,255)" text-rendering="geometricPrecision" shape-rendering="geometricPrecision" transform="matrix(1,0,0,1,1308,-4)" stroke="rgb(153,255,255)">
      <rect x="-293.4091" width="256.8562" height="207.0031" y="655.7976" clip-path="url(#clipPath2)" stroke="none"/>
    </g>
    <g text-rendering="geometricPrecision" stroke-miterlimit="1.45" shape-rendering="geometricPrecision" transform="matrix(1,0,0,1,1308,-4)" stroke-linecap="butt">
      <rect fill="none" x="-293.4091" width="256.8562" height="207.0031" y="655.7976" clip-path="url(#clipPath2)"/>
    </g>
    <g stroke-linecap="butt" font-size="16px" transform="matrix(1,0,0,1,1308,-4)" text-rendering="geometricPrecision" font-family="sans-serif" shape-rendering="geometricPrecision" font-style="italic" font-weight="bold" stroke-miterlimit="1.45">
      <text x="-284.6093" xml:space="preserve" y="679.5779" clip-path="url(#clipPath2)" stroke="none">Controlled Terminologies and</text>
      <text x="-236.6249" xml:space="preserve" y="699.1795" clip-path="url(#clipPath2)" stroke="none">Dictionary Terms</text>
    </g>
    <g fill="rgb(153,255,255)" text-rendering="geometricPrecision" shape-rendering="geometricPrecision" transform="matrix(1,0,0,1,1308,-4)" stroke="rgb(153,255,255)">
      <rect x="-1292.624" width="977.9649" height="73.5629" y="789.2378" clip-path="url(#clipPath2)" stroke="none"/>
    </g>
    <g text-rendering="geometricPrecision" stroke-miterlimit="1.45" shape-rendering="geometricPrecision" transform="matrix(1,0,0,1,1308,-4)" stroke-linecap="butt">
      <rect fill="none" x="-1292.624" width="977.9649" height="73.5629" y="789.2378" clip-path="url(#clipPath2)"/>
    </g>
    <g stroke-linecap="butt" font-size="16px" transform="matrix(1,0,0,1,1308,-4)" text-rendering="geometricPrecision" font-family="sans-serif" shape-rendering="geometricPrecision" font-style="italic" font-weight="bold" stroke-miterlimit="1.45">
      <text x="-1002.7132" xml:space="preserve" y="809.3474" clip-path="url(#clipPath2)" stroke="none">Data Model and Implementation Guides Model</text>
    </g>
    <g fill="rgb(153,204,255)" text-rendering="geometricPrecision" shape-rendering="geometricPrecision" transform="matrix(1,0,0,1,1308,-4)" stroke="rgb(153,204,255)">
      <rect x="-1278.2196" y="616.1918" clip-path="url(#clipPath2)" width="247" rx="4" ry="4" height="61" stroke="none"/>
    </g>
    <g text-rendering="geometricPrecision" stroke-miterlimit="1.45" shape-rendering="geometricPrecision" transform="matrix(1,0,0,1,1308,-4)" stroke-linecap="butt">
      <rect x="-1278.2196" y="616.1918" clip-path="url(#clipPath2)" fill="none" width="247" rx="4" ry="4" height="61"/>
      <text x="-1249.4188" font-size="16px" y="652.977" clip-path="url(#clipPath2)" font-family="sans-serif" stroke="none" font-weight="bold" xml:space="preserve">Semantic Item Data Type</text>
    </g>
    <g fill="rgb(153,204,255)" text-rendering="geometricPrecision" shape-rendering="geometricPrecision" transform="matrix(1,0,0,1,1308,-4)" stroke="rgb(153,204,255)">
      <rect x="-1278.2196" y="690.5356" clip-path="url(#clipPath2)" width="247" rx="4" ry="4" height="61" stroke="none"/>
    </g>
    <g text-rendering="geometricPrecision" stroke-miterlimit="1.45" shape-rendering="geometricPrecision" transform="matrix(1,0,0,1,1308,-4)" stroke-linecap="butt">
      <rect x="-1278.2196" y="690.5356" clip-path="url(#clipPath2)" fill="none" width="247" rx="4" ry="4" height="61"/>
      <text x="-1228.5204" font-size="16px" y="727.3208" clip-path="url(#clipPath2)" font-family="sans-serif" stroke="none" font-weight="bold" xml:space="preserve">Semantic Item Role</text>
      <path fill="none" d="M-527.4906 371.2661 L-527.4906 422.0543" clip-path="url(#clipPath2)"/>
      <path d="M-527.4906 430.0543 L-522.4906 418.0543 L-527.4906 421.0543 L-532.4906 418.0543 Z" clip-path="url(#clipPath2)" stroke="none"/>
      <text x="-558.1348" xml:space="preserve" y="385.3283" clip-path="url(#clipPath2)" font-family="sans-serif" stroke="none">[1..n]</text>
      <text x="-512.1656" xml:space="preserve" y="416.722" clip-path="url(#clipPath2)" font-family="sans-serif" stroke="none">[0..n]</text>
      <path fill="none" d="M-527.4906 251.5255 L-527.4906 302.3138" clip-path="url(#clipPath2)"/>
      <path d="M-527.4906 310.3138 L-522.4906 298.3138 L-527.4906 301.3138 L-532.4906 298.3138 Z" clip-path="url(#clipPath2)" stroke="none"/>
      <text x="-549.4159" xml:space="preserve" y="267.2261" clip-path="url(#clipPath2)" font-family="sans-serif" stroke="none">[1]</text>
      <text x="-512.9848" xml:space="preserve" y="299.3176" clip-path="url(#clipPath2)" font-family="sans-serif" stroke="none">[0..n]</text>
      <path fill="none" d="M-527.4906 491.0067 L-527.4906 541.7949" clip-path="url(#clipPath2)"/>
      <path d="M-527.4906 549.7949 L-522.4906 537.7949 L-527.4906 540.7949 L-532.4906 537.7949 Z" clip-path="url(#clipPath2)" stroke="none"/>
      <text x="-550.235" xml:space="preserve" y="507.9361" clip-path="url(#clipPath2)" font-family="sans-serif" stroke="none">[1]</text>
      <text x="-512.9848" xml:space="preserve" y="537.9655" clip-path="url(#clipPath2)" font-family="sans-serif" stroke="none">[0..n]</text>
      <path fill="none" d="M-527.4906 610.7473 L-527.4906 661.5355" clip-path="url(#clipPath2)"/>
      <path d="M-527.4906 669.5355 L-522.4906 657.5355 L-527.4906 660.5355 L-532.4906 657.5355 Z" clip-path="url(#clipPath2)" stroke="none"/>
      <text x="-551.4639" xml:space="preserve" y="627.6766" clip-path="url(#clipPath2)" font-family="sans-serif" stroke="none">[1]</text>
      <text x="-513.804" xml:space="preserve" y="658.6474" clip-path="url(#clipPath2)" font-family="sans-serif" stroke="none">[0..n]</text>
      <path fill="none" d="M-650.968 700.9414 L-726.2338 701.5169" clip-path="url(#clipPath2)"/>
      <path d="M-734.2335 701.5781 L-722.1956 706.4862 L-725.2338 701.5093 L-722.2721 696.4865 Z" clip-path="url(#clipPath2)" stroke="none"/>
      <text x="-728.2311" xml:space="preserve" y="692.001" clip-path="url(#clipPath2)" font-family="sans-serif" stroke="none">[1..n]</text>
      <text x="-684.6742" xml:space="preserve" y="714.7016" clip-path="url(#clipPath2)" font-family="sans-serif" stroke="none">[0..n]</text>
      <path fill="none" d="M-650.968 581.2009 L-726.2338 581.7764" clip-path="url(#clipPath2)"/>
      <path d="M-734.2335 581.8375 L-722.1956 586.7457 L-725.2338 581.7687 L-722.2721 576.7459 Z" clip-path="url(#clipPath2)" stroke="none"/>
      <text x="-725.8879" xml:space="preserve" y="571.1307" clip-path="url(#clipPath2)" font-family="sans-serif" stroke="none">[1..n]</text>
      <text x="-684.6742" xml:space="preserve" y="594.7668" clip-path="url(#clipPath2)" font-family="sans-serif" stroke="none">[0..n]</text>
      <path fill="none" d="M-895.2309 552.2746 L-895.5005 551.2272 L-897.7971 544.9357 L-900.6757 538.9307 L-904.1052 533.2503 L-908.0544 527.9324 L-912.4924 523.015 L-917.3879 518.5359 L-922.7099 514.5332 L-928.4272 511.0448 L-934.509 508.1086 L-940.9238 505.7627 L-947.6407 504.045 L-954.6287 502.9933 L-961.687 502.651 L-968.6105 503.015 L-975.3613 504.0543 L-981.9015 505.7378 L-988.193 508.0344 L-994.1979 510.913 L-999.8784 514.3425 L-1005.1962 518.2917 L-1010.1137 522.7296 L-1014.5928 527.6252 L-1018.5955 532.9471 L-1022.0839 538.6646 L-1025.02 544.7462 L-1027.366 551.1611 L-1029.0837 557.8781 L-1030.1354 564.866 L-1030.4777 571.9243 L-1030.1136 578.8478 L-1029.0743 585.5986 L-1027.3909 592.1388 L-1025.0942 598.4303 L-1022.2157 604.4352 L-1018.7862 610.1156 L-1014.837 615.4335 L-1010.399 620.351 L-1005.5035 624.8301 L-1000.1815 628.8328 L-994.4641 632.3212 L-988.3824 635.2573 L-981.9676 637.6032 L-975.2506 639.321 L-968.2627 640.3726 L-961.2044 640.715 L-954.2808 640.351 L-947.53 639.3116 L-940.9899 637.6281 L-934.6984 635.3315 L-928.6934 632.4529 L-923.0131 629.0235 L-917.6951 625.0743 L-912.7776 620.6363 L-911.6152 619.3657 L-911.5551 619.2858" clip-path="url(#clipPath2)"/>
      <path d="M-906.3733 613.1908 L-917.9553 619.0948 L-912.2028 620.0477 L-910.3365 625.572 Z" clip-path="url(#clipPath2)" stroke="none"/>
      <text x="-934.1661" xml:space="preserve" y="542.1794" clip-path="url(#clipPath2)" font-family="sans-serif" stroke="none">[0..1]</text>
      <text x="-961.1873" xml:space="preserve" y="626.8636" clip-path="url(#clipPath2)" font-family="sans-serif" stroke="none">[0..n]</text>
      <path fill="none" d="M-857.7311 613.2724 L-857.7311 664.0606" clip-path="url(#clipPath2)"/>
      <path d="M-857.7311 672.0606 L-852.7311 660.0606 L-857.7311 663.0606 L-862.7311 660.0606 Z" clip-path="url(#clipPath2)" stroke="none"/>
      <text x="-881.1137" xml:space="preserve" y="630.7079" clip-path="url(#clipPath2)" font-family="sans-serif" stroke="none">[1]</text>
      <text x="-842.682" xml:space="preserve" y="659.3395" clip-path="url(#clipPath2)" font-family="sans-serif" stroke="none">[0..n]</text>
      <path fill="none" d="M-527.2645 80.0591 L-526.9176 126.8368" clip-path="url(#clipPath2)"/>
      <path d="M-526.8582 134.8366 L-521.9474 122.7998 L-526.925 125.8369 L-531.9471 122.8741 Z" clip-path="url(#clipPath2)" stroke="none"/>
      <path fill="none" d="M-353.4358 384.2083 L-301.4477 384.4779" clip-path="url(#clipPath2)"/>
      <path d="M-293.4478 384.5193 L-305.4218 379.4572 L-302.4477 384.4727 L-305.4736 389.4571 Z" clip-path="url(#clipPath2)" stroke="none"/>
      <path fill="none" d="M-403.974 699.9973 L-301.4032 699.9973" clip-path="url(#clipPath2)"/>
      <path d="M-293.4032 699.9973 L-305.4032 694.9973 L-302.4032 699.9973 L-305.4032 704.9973 Z" clip-path="url(#clipPath2)" stroke="none"/>
      <path fill="none" d="M-857.7311 733.0137 L-857.7311 781.2022" clip-path="url(#clipPath2)"/>
      <path d="M-857.7311 789.2022 L-852.7311 777.2022 L-857.7311 780.2022 L-862.7311 777.2022 Z" clip-path="url(#clipPath2)" stroke="none"/>
      <path fill="none" d="M-314.6591 826.0193 L-301.415 826.0193" clip-path="url(#clipPath2)"/>
      <path d="M-293.415 826.0193 L-305.415 821.0193 L-302.415 826.0193 L-305.415 831.0193 Z" clip-path="url(#clipPath2)" stroke="none"/>
      <path fill="none" d="M-981.1956 680.466 L-1024.1177 658.5948" clip-path="url(#clipPath2)"/>
      <path d="M-1031.2456 654.9628 L-1022.8237 664.8659 L-1023.2266 659.0489 L-1018.2836 655.9559 Z" clip-path="url(#clipPath2)" stroke="none"/>
      <path fill="none" d="M-981.2468 710.2219 L-1023.195 712.8369" clip-path="url(#clipPath2)"/>
      <path d="M-1031.1796 713.3345 L-1018.8918 717.5783 L-1022.197 712.7747 L-1019.5139 707.5977 Z" clip-path="url(#clipPath2)" stroke="none"/>
    </g>
  </g>
</svg>
